Coordinates
version=1
nRows=38
nColumns=12
inDegrees=yes

Units are S.I. units (second, meters, Newtons, ...)
Angles are in degrees

endheader
time	SC_y	SC_z	SC_x	AC_y	AC_z	AC_x	GH_y	GH_z	GH_yy	EL_x	PS_y
       0.0              -16.05          16.63          75.02           30.2        -0.3799          -3.87         -147.6          9.324          67.35          24.62          147.4
   0.03947              -16.05          16.63          75.02           30.2        -0.3812         -3.871         -147.6          9.334          67.35          24.64          147.4
   0.07894              -16.05          16.63          75.01          30.21        -0.3825         -3.872         -147.5          9.345          67.36          24.65          147.4
    0.1184              -16.05          16.63          75.01          30.22         -0.384         -3.873         -147.5          9.357          67.36          24.67          147.4
    0.1579              -16.05          16.63          75.01          30.22        -0.3855         -3.874         -147.4           9.37          67.36          24.69          147.4
    0.1974              -16.06          16.63           75.0          30.23        -0.3871         -3.875         -147.4          9.383          67.37          24.71          147.4
    0.2368              -16.06          16.63           75.0          30.24        -0.3888         -3.877         -147.3          9.398          67.37          24.73          147.4
    0.2763              -16.06          16.64          74.99          30.24        -0.3907         -3.878         -147.3          9.413          67.37          24.76          147.4
    0.3158              -16.06          16.64          74.99          30.25        -0.3927          -3.88         -147.2          9.429          67.38          24.78          147.4
    0.3552              -16.07          16.64          74.98          30.26        -0.3948         -3.882         -147.2          9.447          67.38          24.81          147.4
    0.3947              -16.07          16.64          74.97          30.27        -0.3971         -3.884         -147.1          9.466          67.38          24.84          147.4
    0.4342              -16.07          16.65          74.97          30.28        -0.3995         -3.886         -147.0          9.486          67.39          24.87          147.4
    0.4736              -16.08          16.65          74.96          30.29        -0.4022         -3.888         -147.0          9.508          67.39           24.9          147.4
    0.5131              -16.08          16.65          74.95           30.3        -0.4051          -3.89         -146.9          9.532           67.4          24.94          147.5
    0.5526              -16.08          16.65          74.94          30.32        -0.4082         -3.893         -146.8          9.558           67.4          24.98          147.5
    0.5921              -16.09          16.66          74.93          30.33        -0.4115         -3.895         -146.7          9.586          67.41          25.02          147.5
    0.6315              -16.09          16.66          74.92          30.35        -0.4152         -3.898         -146.6          9.616          67.42          25.07          147.5
     0.671               -16.1          16.66          74.91          30.36        -0.4192         -3.901         -146.5          9.649          67.42          25.12          147.5
    0.7105               -16.1          16.67           74.9          30.38        -0.4235         -3.905         -146.4          9.685          67.43          25.17          147.5
    0.7499              -16.11          16.67          74.89           30.4        -0.4283         -3.909         -146.2          9.725          67.44          25.23          147.5
    0.7894              -16.12          16.68          74.87          30.42        -0.4335         -3.913         -146.1          9.768          67.45           25.3          147.5
    0.8289              -16.12          16.68          74.86          30.45        -0.4392         -3.918         -145.9          9.816          67.46          25.37          147.5
    0.8684              -16.13          16.69          74.84          30.47        -0.4456         -3.923         -145.7          9.868          67.47          25.45          147.5
    0.9078              -16.14           16.7          74.82           30.5        -0.4526         -3.929         -145.5          9.927          67.48          25.54          147.5
    0.9473              -16.15          16.71           74.8          30.54        -0.4605         -3.935         -145.3          9.992           67.5          25.64          147.5
    0.9868              -16.16          16.71          74.77          30.57        -0.4692         -3.942         -145.1          10.06          67.51          25.75          147.5
     1.026              -16.18          16.72          74.75          30.61         -0.479          -3.95         -144.8          10.15          67.53          25.87          147.5
     1.066              -16.19          16.74          74.72          30.66          -0.49         -3.959         -144.5          10.24          67.55          26.01          147.5
     1.105              -16.21          16.75          74.68          30.71        -0.5024         -3.969         -144.1          10.34          67.57          26.17          147.5
     1.145              -16.23          16.76          74.64          30.77        -0.5165         -3.981         -143.7          10.46           67.6          26.35          147.5
     1.184              -16.25          16.78           74.6          30.84        -0.5326         -3.994         -143.3          10.59          67.63          26.55          147.5
     1.224              -16.27           16.8          74.55          30.92        -0.5511         -4.009         -142.7          10.74          67.66          26.79          147.5
     1.263               -16.3          16.82          74.49          31.01        -0.5725         -4.026         -142.1          10.92           67.7          27.06          147.5
     1.303              -16.33          16.84          74.42          31.11        -0.5973         -4.046         -141.4          11.13          67.74          27.37          147.5
     1.342              -16.37          16.87          74.34          31.23        -0.6263          -4.07         -140.6          11.37          67.79          27.74          147.5
     1.381              -16.42           16.9          74.24          31.38        -0.6605         -4.098         -139.6          11.65          67.85          28.17          147.5
     1.421              -16.47          16.95          74.13          31.55        -0.7012         -4.131         -138.5          11.99          67.93          28.69          147.5
      1.46              -16.53          16.99          73.99          31.75        -0.7499          -4.17         -137.1          12.39          68.01          29.31          147.5
